<svg version="1" xmlns="http://www.w3.org/2000/svg" width="410.667" height="410.667" viewBox="0 0 308.000000 308.000000"><path d="M148.1 3.6c-2 2.5-2.1 3.9-2.1 26 0 12.9-.2 23.4-.5 23.4s-10.3-6.5-22.2-14.5c-11.8-8-22.4-14.5-23.5-14.5-2.7 0-6.8 4.5-6.8 7.5 0 1.4.8 3.3 1.8 4.2 1 1 12.9 9.2 26.5 18.3L146 70.5v32.2h14l.1-3.6V70.3l25.1-16.9c13.8-9.3 25.7-17.9 26.5-19 1.5-2.4.9-6.6-1.2-8.4-3.9-3.2-6.2-2.3-24.3 9.8-9.7 6.5-19.6 13.1-21.9 14.5l-4.2 2.7V30.7 6.8C160 4.2 156 1 152.9 1c-1.8 0-3.5.9-4.8 2.6zM70.6 39.3c-2.5 2.5-2.4-.3-1.1 35.2.4 10.4.9 19.3 1.2 19.7.2.5.2.8 0 .8-.3 0-9.7-5.6-20.8-12.5C38.7 75.6 28.6 70 27.4 70c-4.5 0-7.6 5.6-5.8 10.4.3.9 9.2 6.8 19.8 13.3 10.5 6.4 19.5 12 20 12.4.8.7-3.5 2.9-24.4 12.4-24 10.8-24 10.8-24 15.4 0 3.3 3.3 7.1 6.2 7.1 1.8 0 12.7-4.7 38.3-16.5 18.1-8.3 19.2-8.7 21.1-7.7 1.1.6 7.5 4.4 14.3 8.6 6.8 4.2 12.4 7.5 12.5 7.4.1-.2 1.6-2.7 3.4-5.7 2.4-3.9 3-5.7 2.2-6.6-.6-.7-6.4-4.5-13-8.4-6.5-3.9-12.2-7.7-12.6-8.3-.8-1.2-.8-2-1.9-31.3-.6-15.2-.9-21.5-1.4-30.2-.2-2.1-4.3-5.3-6.8-5.3-1.3 0-3.4 1-4.7 2.3zM225 39c-1.1 1.1-2.1 2.8-2.1 3.7-.3 3.7-.6 11.4-1.3 29.8-1.1 28.4-1.3 30.6-2.4 31.7-.5.5-6.6 4.4-13.5 8.7l-12.5 7.6 3.7 6.1c3.3 5.4 3.9 6 5.4 4.9 1-.7 7.1-4.5 13.7-8.5l12-7.3 11.8 5.3c6.4 2.9 15.3 7 19.7 9 18.3 8.4 24.3 11 25.8 11 .9 0 2.8-1 4.3-2.3 2.3-2 2.6-2.8 2-5.9-.7-4.1.7-3.2-29.6-17-9.6-4.4-17.8-8.3-18.2-8.6-.4-.4 8.2-6.3 19.1-13 11-6.8 20.2-13 20.5-13.8 1.8-4.8-.3-9.1-4.9-9.9-2.6-.5-6 1.3-23.4 12L234.8 95l.7-20.2c1.2-34.5 1.3-33.8-1.4-35.9-3-2.5-6.6-2.4-9.1.1zM141.5 114.4c-25.8 8.1-36.6 37.8-21.6 59.6 14 20.4 43.8 22.9 60.4 5.1 6.5-7 9.8-14.5 10.4-23.9 1.2-17.3-7-31.2-22.7-38.6-5.4-2.5-7.9-3.1-14.5-3.2-4.4-.1-9.8.3-12 1zM16.4 165.8c-1.6 1-3.4 4.8-3.4 7 0 3.2 3.9 5.6 25 15.1 11.3 5.2 21.5 9.9 22.8 10.5 2.2 1.2 1.1 2-17.8 13.6-12 7.4-20.6 13.3-21.2 14.6-1.6 3.6-.1 7.4 3.5 8.9 3.9 1.6 3.1 2 26.2-12.3 17.3-10.6 20.3-12.3 19.2-10.6-.3.6-.9 9.5-1.2 19.9-.4 10.5-.8 21.5-1 24.5-.1 3 .1 6.5.6 7.8 1.8 4.7 9.6 5.4 12 1.1 1.2-2.3 1.4-5.1 2.4-33.4.7-18.8 1-24.8 1.3-28.3.2-1 5.4-4.8 14.1-10.1l13.9-8.4-2.9-4.7c-1.6-2.6-2.9-5.2-2.9-5.9 0-.6-.4-1.1-1-1.1-.9 0-19.2 10.7-24.2 14.1-1.4 1.1-3.2 1.9-4 1.9-.8 0-13.7-5.6-28.7-12.5-26-11.9-30.2-13.4-32.7-11.7zM277 166.3c-1.4.6-6.1 2.8-10.5 4.8s-10.2 4.7-13 5.9c-2.7 1.2-8.4 3.8-12.5 5.7-4.1 2-9.7 4.5-12.4 5.7l-5 2.2-13.4-8.3c-12.4-7.6-13.6-8.1-14.8-6.5-.7.9-1.4 2.1-1.4 2.5 0 .5-1.1 2.3-2.5 4.1l-2.5 3.3 13.6 8.4c7.5 4.6 13.8 8.8 14 9.4.1.5.6 8.2.9 17 1.6 44.1 1.5 42.9 3.4 45.5 2.4 3.4 6.9 3.8 10 .9 2.5-2.4 2.5-.4.6-44.7-.3-5.7-.2-10.1.3-9.9.4.2 9.4 5.7 20 12.2 11.4 6.9 20.3 11.7 21.8 11.7 6 .1 8.8-7.7 4.2-11.7-1.3-1.1-10.8-7.2-21.1-13.5l-18.6-11.5 4.7-2.2c2.6-1.2 13.3-6 23.7-10.8 10.5-4.8 19.5-9.2 20.2-9.8 1.1-1.1 1.7-3.7 1.4-6.5-.2-2.1-4-5.2-6.3-5.1-1.3 0-3.4.5-4.8 1.2zM146 221.5v16.2l-24.7 16.4c-13.5 9-25.5 17.3-26.5 18.3-1 1.1-1.8 3-1.8 4.3 0 2.9 4.2 7.3 6.9 7.3 1.1 0 11.8-6.5 23.7-14.5 11.8-8 21.8-14.5 22-14.5.2 0 .4 10.5.4 23.4 0 22.1.1 23.5 2.1 26 4.2 5.3 11.9 2 11.9-5.2.1-2 .1-12.8.1-24 0-15.4.3-20.1 1.2-19.5.7.3 10.5 6.9 21.8 14.5 17.3 11.6 21.1 13.8 23.5 13.4 1.5-.3 3.4-1.2 4.2-2 2.1-2.1 1.9-7.4-.4-9.6-1-1-12.8-9-26.1-17.9L160.1 238v-12.7-16.4l-.1-3.6h-14v16.2z"/></svg>